# xmcd CD database file
#
# Track frame offsets:
#	150
#	15695
#	28678
#	50734
#	62907
#	75141
#	87810
#	103327
#	119314
#	132732
#	145027
#	157531
#	170827
#	181668
#	193023
#	205457
#	220521
#	235480
#
# Disc length: 3319 seconds
#
# Revision: 2
# Processed by: cddbd v1.5.2PL0 Copyright (c) Steve Scherf et al.
# Submitted via: CDex 1.70beta2
#
DISCID=f70cf512
DTITLE=Tina - Tina 
DYEAR=1900
DGENRE=Chanson
TTITLE0=S'il Le Fallait (L'oro Del Mondo) (Pontiak-Buggy-Massara) (1968)
TTITLE1=C'est Toujours (Yesterday Has Gone) (Randazzo-Buggy-Pike) (1968)
TTITLE2=Le Temps Des Fleurs (Those Were The Days) (Marnay-Raskin) (1968)
TTITLE3=Moi Je T'aime (Quando L'amore Diventa Poesia) (Mogol-Soffici-Jourdan) (1969)
TTITLE4=Le Paradis (Il Paradiso) (Mogol-Battisti-Buggy) 81969)
TTITLE5=Tout Aussi Vrai (Buggy-Dessca-Bartel) (1969)
TTITLE6=Comme Une Âme En Peine (Marnay-Jackson-Colombier) (1969)
TTITLE7=Comme Le Fleuve Aime La Mer (River Deep Mountain High) (André Salvet-Greenwich-Spector) (1969)
TTITLE8=Toc Toc Toc (A Love Like Yours) (Jackson-Holland-Dozier) (1969)
TTITLE9=Ils Croient S'aimer Ils Ont Raison (Du Film Roméo Et Juliette) (Marnay-Nino Rota) (1969)
TTITLE10=Tu M'as Bien Trop Fait Pleurer (Light My Fire) (The Doors-Saka) (1969)
TTITLE11=Il Carnevale (Gérald-Cavallaro-Bigazzi) (1969)
TTITLE12=La Fille Du Soleil (Buggy-Jean-Pierre Bourtayre) (1969)
TTITLE13=In Cima Alla Montagna (Pace-Panzeri-Argenio-Conti) (1969)
TTITLE14=Prato Dell'Amore (Daniele and Flavia Pace-Bartel) (1969)
TTITLE15=Love Me (B. and R.Gibb-Bergman) (1977)
TTITLE16=Ecris-Moi La Chanson (Colombier-Bergman) (1977)
TTITLE17=La Ville Dort (Warm Ways) (McVie-Bergman) (inedito)
EXTD=
EXTT0=
EXTT1=
EXTT2=
EXTT3=
EXTT4=
EXTT5=
EXTT6=
EXTT7=
EXTT8=
EXTT9=
EXTT10=
EXTT11=
EXTT12=
EXTT13=
EXTT14=
EXTT15=
EXTT16=
EXTT17=
PLAYORDER=
